<?xml version="1.0" standalone="no"?>
<!DOCTYPE svg PUBLIC "-//W3C//DTD SVG 20010904//EN"
 "http://www.w3.org/TR/2001/REC-SVG-20010904/DTD/svg10.dtd">
<svg version="1.0" xmlns="http://www.w3.org/2000/svg"
 width="1024.000000pt" height="1024.000000pt" viewBox="0 0 1024.000000 1024.000000"
 preserveAspectRatio="xMidYMid meet">
<metadata>
Created by potrace 1.14, written by Peter Selinger 2001-2017
</metadata>
<g transform="translate(0.000000,1024.000000) scale(0.100000,-0.100000)"
fill="#000000" stroke="none">
<path d="M3418 9063 c-90 -26 -178 -69 -248 -120 -61 -45 -2801 -2784 -2854
-2853 -107 -140 -158 -287 -159 -465 -1 -190 52 -344 173 -500 73 -93 2801
-2810 2865 -2852 145 -96 259 -129 450 -127 185 1 329 52 468 164 40 32 693
680 1453 1441 1433 1436 1414 1416 1478 1560 61 139 76 341 37 497 -23 94 -75
203 -130 277 -38 50 -2750 2767 -2823 2828 -97 81 -236 146 -357 167 -101 18
-257 10 -353 -17z m375 -1128 c132 -63 205 -181 205 -337 0 -126 -56 -232
-161 -301 -65 -43 -114 -59 -192 -63 -212 -10 -392 167 -384 378 4 106 40 188
115 260 105 103 279 129 417 63z m-2013 -1971 c75 -24 179 -127 208 -207 79
-209 -34 -442 -241 -498 -68 -18 -175 -13 -241 12 -81 30 -175 123 -206 205
-42 110 -31 240 30 338 39 65 126 134 188 152 31 8 62 17 67 19 22 9 143 -4
195 -21z m1978 3 c121 -43 210 -150 238 -287 35 -170 -78 -361 -245 -415 -112
-37 -266 -12 -348 56 -50 41 -103 116 -123 174 -28 80 -22 200 12 275 25 55
91 132 142 165 77 51 229 66 324 32z m1991 -2 c85 -30 159 -100 204 -195 28
-58 31 -74 31 -150 -1 -115 -27 -180 -102 -260 -75 -79 -153 -112 -262 -112
-41 0 -87 5 -102 11 -16 6 -28 8 -28 5 0 -8 -66 33 -112 68 -105 81 -154 239
-119 380 30 119 130 226 244 259 72 22 176 19 246 -6z m-1963 -1999 c73 -33
141 -99 180 -175 23 -45 28 -69 31 -140 4 -128 -29 -213 -112 -290 -67 -62
-143 -94 -231 -97 -161 -6 -288 66 -356 203 -27 55 -32 78 -34 147 -3 91 8
140 44 201 49 80 102 125 191 161 81 33 202 29 287 -10z"/>
<path d="M7500 6108 c0 -4 12 -38 26 -75 79 -207 92 -441 39 -708 -22 -107
-102 -288 -176 -398 -79 -117 -3 -39 -1577 -1623 l-694 -698 5 -430 c4 -431 4
-431 29 -509 39 -115 99 -210 197 -308 101 -100 200 -155 341 -190 85 -21 89
-21 1910 -21 2002 0 1885 -3 2033 58 207 87 375 283 429 502 l22 87 0 1815 c0
998 -3 1835 -6 1860 -11 78 -27 137 -52 195 -74 167 -229 320 -394 389 -140
59 -110 58 -1165 59 -532 1 -967 -1 -967 -5z m236 -2134 c77 -31 118 -62 164
-123 85 -113 97 -271 29 -401 -28 -54 -110 -127 -177 -158 -72 -33 -197 -37
-279 -9 -203 71 -302 327 -200 523 41 79 140 157 233 183 59 17 169 10 230
-15z"/>
</g>
</svg>
